<svg width="13" height="15" viewBox="0 0 13 15" fill="none" xmlns="http://www.w3.org/2000/svg">
<path d="M12.6923 0.576923V12.1154C12.6923 12.2684 12.6315 12.4151 12.5233 12.5233C12.4151 12.6315 12.2684 12.6923 12.1154 12.6923H2.30769C2.00167 12.6923 1.70819 12.8139 1.4918 13.0303C1.27541 13.2466 1.15385 13.5401 1.15385 13.8462H10.9615C11.1145 13.8462 11.2613 13.9069 11.3695 14.0151C11.4777 14.1233 11.5385 14.2701 11.5385 14.4231C11.5385 14.5761 11.4777 14.7228 11.3695 14.831C11.2613 14.9392 11.1145 15 10.9615 15H0.576923C0.423914 15 0.277171 14.9392 0.168977 14.831C0.0607829 14.7228 0 14.5761 0 14.4231V2.30769C0 1.69565 0.243131 1.10868 0.675907 0.675907C1.10868 0.243131 1.69565 0 2.30769 0H12.1154C12.2684 0 12.4151 0.0607828 12.5233 0.168977C12.6315 0.277171 12.6923 0.423914 12.6923 0.576923Z" fill="#55B6FF"/>
</svg>