<svg width="15" height="14" viewBox="0 0 15 14" fill="none" xmlns="http://www.w3.org/2000/svg">
<path d="M0 0.74475C0.00137253 0.547784 0.0801752 0.359263 0.219385 0.219913C0.358594 0.0805634 0.547035 0.00157099 0.744 0H14.256C14.667 0 15 0.33375 15 0.74475V12.7552C14.9986 12.9522 14.9198 13.1407 14.7806 13.2801C14.6414 13.4194 14.453 13.4984 14.256 13.5H0.744C0.54661 13.4998 0.357373 13.4212 0.217867 13.2816C0.0783615 13.142 -1.00091e-07 12.9526 0 12.7552V0.74475ZM6.4665 4.06125C6.42136 4.03113 6.3689 4.01383 6.3147 4.01117C6.26051 4.00851 6.2066 4.0206 6.15873 4.04615C6.11086 4.0717 6.07082 4.10975 6.04287 4.15626C6.01492 4.20277 6.0001 4.25599 6 4.31025V9.18975C6.0001 9.24401 6.01492 9.29723 6.04287 9.34374C6.07082 9.39025 6.11086 9.4283 6.15873 9.45385C6.2066 9.47941 6.26051 9.49149 6.3147 9.48883C6.3689 9.48617 6.42136 9.46887 6.4665 9.43875L10.1258 6.99975C10.1667 6.97225 10.2003 6.93508 10.2236 6.89152C10.2468 6.84797 10.2589 6.79936 10.2589 6.75C10.2589 6.70064 10.2468 6.65203 10.2236 6.60848C10.2003 6.56492 10.1667 6.52775 10.1258 6.50025L6.4665 4.06125Z" fill="#8729FF"/>
</svg>