<svg width="17" height="16" viewBox="0 0 17 16" fill="none" xmlns="http://www.w3.org/2000/svg">
<mask id="mask0_685_417" style="mask-type:luminance" maskUnits="userSpaceOnUse" x="-1" y="0" width="19" height="17">
<path d="M14.8158 4.73682H2.18421C1.53019 4.73682 1 5.26701 1 5.92103V13.8158C1 14.4698 1.53019 15 2.18421 15H14.8158C15.4698 15 16 14.4698 16 13.8158V5.92103C16 5.26701 15.4698 4.73682 14.8158 4.73682Z" fill="white" stroke="white" stroke-width="4" stroke-linejoin="round"/>
<path d="M6.52633 1.57895H10.4737V0H6.52633V1.57895ZM10.8684 1.97368V4.73684H12.4474V1.97368H10.8684ZM6.13159 4.73684V1.97368H4.55264V4.73684H6.13159ZM10.4737 1.57895C10.5784 1.57895 10.6788 1.62054 10.7528 1.69456C10.8268 1.76859 10.8684 1.86899 10.8684 1.97368H12.4474C12.4474 1.45023 12.2394 0.948216 11.8693 0.578079C11.4992 0.207941 10.9971 0 10.4737 0V1.57895ZM6.52633 0C6.00287 0 5.50086 0.207941 5.13072 0.578079C4.76058 0.948216 4.55264 1.45023 4.55264 1.97368H6.13159C6.13159 1.86899 6.17318 1.76859 6.24721 1.69456C6.32123 1.62054 6.42164 1.57895 6.52633 1.57895V0Z" fill="white"/>
<path d="M6.13159 9.86842H10.8684M8.50001 7.5V12.2368" stroke="black" stroke-width="2" stroke-linecap="round" stroke-linejoin="round"/>
</mask>
<g mask="url(#mask0_685_417)">
<path d="M-0.973694 -1.57898H17.9737V17.3684H-0.973694V-1.57898Z" fill="#DA0000"/>
</g>
</svg>