<svg width="11" height="15" viewBox="0 0 11 15" fill="none" xmlns="http://www.w3.org/2000/svg">
<path d="M6.0045 9.67525V14.25C6.0045 14.4489 5.92549 14.6397 5.78484 14.7803C5.6442 14.921 5.45344 15 5.25454 15C5.05563 15 4.86488 14.921 4.72423 14.7803C4.58359 14.6397 4.50457 14.4489 4.50457 14.25V9.67525C3.66027 9.84873 2.78198 9.72606 2.01752 9.32787C1.25307 8.92968 0.649133 8.28028 0.307368 7.48899C-0.034398 6.6977 -0.0931259 5.81283 0.141069 4.98331C0.375264 4.1538 0.888082 3.43028 1.59321 2.93456C1.77893 2.10203 2.24283 1.35765 2.90842 0.824177C3.57401 0.290706 4.40154 0 5.25454 0C6.10753 0 6.93506 0.290706 7.60065 0.824177C8.26624 1.35765 8.73015 2.10203 8.91587 2.93456C9.62099 3.43028 10.1338 4.1538 10.368 4.98331C10.6022 5.81283 10.5435 6.6977 10.2017 7.48899C9.85994 8.28028 9.256 8.92968 8.49155 9.32787C7.7271 9.72606 6.8488 9.84873 6.0045 9.67525Z" fill="#007417"/>
</svg>