<svg width="17" height="17" viewBox="0 0 17 17" fill="none" xmlns="http://www.w3.org/2000/svg">
<path d="M5.59859 1L2.81479 5.87165H1.74987C1.6346 5.87177 1.52091 5.89844 1.41761 5.94959C1.31431 6.00074 1.22417 6.07498 1.15419 6.16658C1.0842 6.25817 1.03625 6.36465 1.01405 6.47776C0.991854 6.59087 0.996 6.70758 1.02617 6.81883L3.12527 14.5155C3.21228 14.8328 3.40099 15.1128 3.66245 15.3124C3.92391 15.5121 4.24367 15.6205 4.57266 15.6209H12.4268C13.1003 15.6209 13.6958 15.1672 13.8742 14.5148L15.9733 6.81808C16.0039 6.70679 16.0082 6.58995 15.9861 6.47668C15.964 6.36342 15.916 6.2568 15.8459 6.16517C15.7757 6.07353 15.6853 5.99935 15.5818 5.94843C15.4782 5.89752 15.3643 5.87124 15.2489 5.87165H14.184L11.4002 1L10.0983 1.74395L12.4568 5.87165H4.54192L6.90049 1.74395L5.59859 1ZM9.99927 8.87143H11.4992V12.6212H9.99927V8.87143ZM5.4996 8.87143H6.99949V12.6212H5.4996V8.87143Z" fill="#00D82C"/>
</svg>