<svg width="15" height="15" viewBox="0 0 15 15" fill="none" xmlns="http://www.w3.org/2000/svg">
<path d="M0 7.5C0 5.51088 0.790176 3.60322 2.1967 2.1967C3.60322 0.790176 5.51088 0 7.5 0C9.48912 0 11.3968 0.790176 12.8033 2.1967C14.2098 3.60322 15 5.51088 15 7.5C15 9.48912 14.2098 11.3968 12.8033 12.8033C11.3968 14.2098 9.48912 15 7.5 15C5.51088 15 3.60322 14.2098 2.1967 12.8033C0.790176 11.3968 0 9.48912 0 7.5ZM4.78038 1.76538C3.93861 2.16569 3.19496 2.74588 2.60192 3.465L3.34846 5.89269L4.50923 6.27923L6.92308 4.44462V3.19385L4.78038 1.76538ZM1.19538 8.23154C1.31077 9.22962 1.65692 10.1585 2.17962 10.9604H4.37654L5.10923 10.2277L4.15962 7.37769L2.97808 6.98423L1.19538 8.23154ZM6.21462 13.7146C7.06265 13.8892 7.93735 13.8892 8.78539 13.7146L9.69692 11.6654L8.99192 10.9615H6.00808L5.30423 11.6654L6.21462 13.7146ZM12.8192 10.9615C13.3371 10.1668 13.6696 9.26568 13.7919 8.325L12.0115 6.98885L10.8404 7.37885L9.89077 10.2288L10.6235 10.9615H12.8192ZM12.3808 3.44654C11.7906 2.73556 11.0527 2.16151 10.2185 1.76423L8.07692 3.19385V4.44462L10.4908 6.27923L11.6492 5.89385L12.3808 3.44654Z" fill="#FF8A00"/>
</svg>