<svg width="22" height="29" viewBox="0 0 22 29" fill="none" xmlns="http://www.w3.org/2000/svg">
<path d="M10.9398 1C5.45924 1 1 5.45924 1 10.9403C1 12.37 1.29262 13.735 1.8693 14.9978C4.35452 20.436 9.11937 26.1777 10.5209 27.8077C10.6259 27.9295 10.7789 27.9997 10.94 27.9997C11.1011 27.9997 11.2542 27.9295 11.3592 27.8077C12.7602 26.1779 17.525 20.4366 20.0111 14.9978C20.588 13.735 20.8804 12.37 20.8804 10.9403C20.8798 5.45924 16.4206 1 10.9398 1ZM10.9398 16.1033C8.09284 16.1033 5.77646 13.787 5.77646 10.94C5.77646 8.09284 8.09284 5.77646 10.9398 5.77646C13.7867 5.77646 16.1031 8.09284 16.1031 10.94C16.1033 13.787 13.787 16.1033 10.9398 16.1033Z" stroke="#A8A8A8" stroke-width="2" stroke-linejoin="round"/>
</svg>