<svg width="27" height="26" viewBox="0 0 27 26" fill="none" xmlns="http://www.w3.org/2000/svg">
<path fill-rule="evenodd" clip-rule="evenodd" d="M1.896 21.9793H5.02671C5.44408 20.8209 6.55391 19.9902 7.85436 19.9902C9.15482 19.9902 10.2646 20.8209 10.682 21.9793H25.8647C26.4257 21.9793 26.8804 22.434 26.8804 22.995C26.8804 23.5559 26.4257 24.0106 25.8647 24.0106H10.682C10.2646 25.1691 9.15482 25.9997 7.85436 25.9997C6.55391 25.9997 5.44408 25.1691 5.02671 24.0106H1.896C1.33507 24.0106 0.880371 23.5559 0.880371 22.995C0.880371 22.434 1.33507 21.9793 1.896 21.9793ZM7.85436 23.9684C8.39112 23.9684 8.82784 23.5317 8.82784 22.995C8.82784 22.4582 8.39112 22.0215 7.85436 22.0215C7.31761 22.0215 6.88089 22.4582 6.88089 22.995C6.88089 23.5317 7.31761 23.9684 7.85436 23.9684ZM17.0787 11.984L1.896 11.984C1.33507 11.984 0.880371 12.4387 0.880371 12.9997C0.880371 13.5606 1.33507 14.0153 1.896 14.0153L17.0787 14.0153C17.4961 15.1738 18.6059 16.0044 19.9064 16.0044C21.2068 16.0044 22.3167 15.1738 22.734 14.0153H25.8647C26.4257 14.0153 26.8804 13.5606 26.8804 12.9997C26.8804 12.4387 26.4257 11.984 25.8647 11.984H22.734C22.3167 10.8256 21.2068 9.99494 19.9064 9.99494C18.6059 9.99494 17.4961 10.8256 17.0787 11.984ZM20.8799 12.9997C20.8799 13.5364 20.4431 13.9731 19.9064 13.9731C19.3696 13.9731 18.9329 13.5364 18.9329 12.9997C18.9329 12.4629 19.3696 12.0262 19.9064 12.0262C20.4431 12.0262 20.8799 12.4629 20.8799 12.9997ZM5.02671 1.98874H1.896C1.33507 1.98874 0.880371 2.44344 0.880371 3.00437C0.880371 3.5653 1.33507 4.01999 1.896 4.01999H5.02671C5.44408 5.17846 6.55391 6.00909 7.85436 6.00909C9.15482 6.00909 10.2646 5.17846 10.682 4.01999H25.8647C26.4257 4.01999 26.8804 3.5653 26.8804 3.00437C26.8804 2.44344 26.4257 1.98874 25.8647 1.98874H10.682C10.2646 0.830269 9.15482 -0.000362396 7.85436 -0.000362396C6.55391 -0.000362396 5.44408 0.830269 5.02671 1.98874ZM8.82784 3.00437C8.82784 3.54112 8.39112 3.97784 7.85436 3.97784C7.31761 3.97784 6.88089 3.54112 6.88089 3.00437C6.88089 2.46761 7.31761 2.03089 7.85436 2.03089C8.39112 2.03089 8.82784 2.46761 8.82784 3.00437Z" fill="#A8A8A8"/>
</svg>