<svg width="30" height="30" viewBox="0 0 30 30" fill="none" xmlns="http://www.w3.org/2000/svg">
<path d="M0 15C0 23.2843 6.71573 30 15 30C23.2843 30 30 23.2843 30 15C30 6.71573 23.2843 0 15 0C6.71573 0 0 6.71573 0 15Z" fill="#61A8DE"/>
<path d="M22.9274 6.62234L3.45603 14.44C2.82535 14.6933 2.86356 15.6257 3.51277 15.8232L8.46064 17.3286L10.3072 23.3654C10.5001 23.996 11.2757 24.1872 11.7246 23.7149L14.2828 21.0237L19.3022 24.8197C19.9165 25.2842 20.7913 24.9391 20.9472 24.1707L24.2716 7.7952C24.4344 6.99309 23.6685 6.3248 22.9274 6.62234ZM20.4862 10.2565L11.4419 18.4967C11.3517 18.5789 11.2943 18.6926 11.2809 18.8158L10.9327 22.005C10.9213 22.109 10.7801 22.1228 10.7499 22.0229L9.31725 17.2666C9.25163 17.0488 9.33718 16.8129 9.52522 16.6928L20.2056 9.86794C20.4512 9.71087 20.7027 10.0592 20.4862 10.2565Z" fill="white"/>
</svg>