<svg width="30" height="30" viewBox="0 0 30 30" fill="none" xmlns="http://www.w3.org/2000/svg">
<path d="M0 15C0 23.2843 6.71573 30 15 30C23.2843 30 30 23.2843 30 15C30 6.71573 23.2843 0 15 0C6.71573 0 0 6.71573 0 15Z" fill="#1BD741"/>
<path d="M4.50885 25.5025L5.97834 20.2834C5.03337 18.678 4.53584 16.8515 4.53584 14.9751C4.53584 9.19772 9.23611 4.49744 15.0135 4.49744C20.791 4.49744 25.4912 9.19772 25.4912 14.9751C25.4912 20.7526 20.791 25.4528 15.0135 25.4528C13.2133 25.4528 11.4506 24.992 9.89117 24.117L4.50885 25.5025ZM10.1663 22.2109L10.487 22.4067C11.8467 23.2367 13.4119 23.6755 15.0135 23.6755C19.8109 23.6755 23.7138 19.7725 23.7138 14.9751C23.7138 10.1778 19.8109 6.27481 15.0135 6.27481C10.2162 6.27481 6.3132 10.1778 6.3132 14.9751C6.3132 16.6467 6.78829 18.27 7.68698 19.6694L7.90296 20.0057L7.05674 23.0113L10.1663 22.2109Z" fill="white"/>
<path d="M12.0702 10.0985L11.3903 10.0615C11.1768 10.0498 10.9673 10.1212 10.8059 10.2614C10.4763 10.5476 9.94929 11.1009 9.78742 11.822C9.54603 12.8972 9.91908 14.2138 10.8846 15.5303C11.8501 16.8469 13.6494 18.9534 16.831 19.8531C17.8563 20.143 18.6628 19.9475 19.2851 19.5495C19.778 19.2342 20.1177 18.7282 20.2402 18.1562L20.3487 17.6492C20.3832 17.488 20.3014 17.3245 20.1517 17.2555L17.854 16.1964C17.7048 16.1277 17.5279 16.1711 17.4276 16.3011L16.5255 17.4705C16.4574 17.5588 16.3408 17.5939 16.2354 17.5569C15.6177 17.3398 13.5485 16.4731 12.413 14.286C12.3638 14.1912 12.376 14.0761 12.4459 13.9952L13.308 12.9979C13.3961 12.896 13.4183 12.7528 13.3654 12.6291L12.3749 10.3119C12.3222 10.1885 12.204 10.1058 12.0702 10.0985Z" fill="white"/>
</svg>