<svg width="7" height="10" viewBox="0 0 7 10" fill="none" xmlns="http://www.w3.org/2000/svg">
<path d="M3.49985 0C1.57013 0 0 1.65159 0 3.68164C0 4.21115 0.103034 4.71672 0.306086 5.18442C1.18115 7.1986 2.85888 9.32516 3.35236 9.92887C3.38933 9.97401 3.44323 10 3.49995 10C3.55667 10 3.61057 9.97401 3.64755 9.92887C4.14083 9.32526 5.81856 7.19881 6.69391 5.18442C6.89706 4.71672 7 4.21115 7 3.68164C6.99981 1.65159 5.42968 0 3.49985 0ZM3.49985 5.59389C2.49744 5.59389 1.68182 4.73596 1.68182 3.68153C1.68182 2.62701 2.49744 1.76908 3.49985 1.76908C4.50227 1.76908 5.31789 2.62701 5.31789 3.68153C5.31798 4.73596 4.50237 5.59389 3.49985 5.59389Z" fill="#DC3F3F"/>
</svg>