<svg width="167" height="216" viewBox="0 0 167 216" fill="none" xmlns="http://www.w3.org/2000/svg">
<g filter="url(#filter0_d_687_915)">
<path d="M83.8372 141.333C83.8372 134.453 84.9535 128.409 87.186 123.202C89.4186 117.995 92.3023 113.346 95.8372 109.255C99.3721 105.164 103.093 101.352 107 97.8187C111.093 94.2855 114.907 90.8452 118.442 87.4979C121.977 84.1506 124.86 80.6174 127.093 76.8982C129.326 73.179 130.442 68.9949 130.442 64.3459C130.442 56.5356 127.279 50.2129 120.953 45.378C114.628 40.543 106.163 38.1255 95.5581 38.1255C85.3256 38.1255 76.3953 39.9851 68.7674 43.7043C61.3256 47.4235 55.093 52.7234 50.0698 59.6039L23 42.0307C30.814 31.431 41.0465 23.1557 53.6977 17.205C66.3488 11.0683 81.3256 8 98.6279 8C112.209 8 124.116 10.0456 134.349 14.1367C144.581 18.0418 152.581 23.8066 158.349 31.431C164.116 38.8694 167 47.9814 167 58.7671C167 66.2055 165.791 72.7141 163.372 78.2929C161.14 83.8717 158.163 88.7996 154.442 93.0767C150.907 97.1678 147.093 101.073 143 104.792C138.907 108.325 135 111.859 131.279 115.392C127.744 118.925 124.86 122.737 122.628 126.828C120.395 130.92 119.279 135.755 119.279 141.333H83.8372ZM101.698 208C95.186 208 89.7907 205.861 85.5116 201.584C81.4186 197.307 79.3721 192.193 79.3721 186.243C79.3721 180.292 81.4186 175.271 85.5116 171.18C89.7907 166.903 95.186 164.764 101.698 164.764C108.209 164.764 113.512 166.903 117.605 171.18C121.698 175.271 123.744 180.292 123.744 186.243C123.744 192.193 121.698 197.307 117.605 201.584C113.512 205.861 108.209 208 101.698 208Z" fill="#DC3F3F"/>
</g>
<defs>
<filter id="filter0_d_687_915" x="0" y="-15" width="190" height="246" filterUnits="userSpaceOnUse" color-interpolation-filters="sRGB">
<feFlood flood-opacity="0" result="BackgroundImageFix"/>
<feColorMatrix in="SourceAlpha" type="matrix" values="0 0 0 0 0 0 0 0 0 0 0 0 0 0 0 0 0 0 127 0" result="hardAlpha"/>
<feOffset/>
<feGaussianBlur stdDeviation="11.5"/>
<feComposite in2="hardAlpha" operator="out"/>
<feColorMatrix type="matrix" values="0 0 0 0 0 0 0 0 0 0 0 0 0 0 0 0 0 0 0.25 0"/>
<feBlend mode="normal" in2="BackgroundImageFix" result="effect1_dropShadow_687_915"/>
<feBlend mode="normal" in="SourceGraphic" in2="effect1_dropShadow_687_915" result="shape"/>
</filter>
</defs>
</svg>